<?xml version="1.0" encoding="iso-8859-1"?>
<!-- Generator: Adobe Illustrator 15.1.0, SVG Export Plug-In . SVG Version: 6.00 Build 0)  -->
<!DOCTYPE svg PUBLIC "-//W3C//DTD SVG 1.1//EN" "http://www.w3.org/Graphics/SVG/1.1/DTD/svg11.dtd">
<svg version="1.1" id="Calque_1" xmlns="http://www.w3.org/2000/svg" xmlns:xlink="http://www.w3.org/1999/xlink" x="0px" y="0px"
	 width="140px" height="100px" viewBox="0 0 140 100" style="enable-background:new 0 0 140 100;" xml:space="preserve">
<g>
	<g>
		<path style="fill:#E33F2C;" d="M37.4,77.357h-3.219c-0.235,0-0.426,0.191-0.426,0.427v0.5c0,0.235,0.191,0.426,0.426,0.426h2.294
			v7.169c0,0.174-0.033,0.334-0.1,0.488c-0.07,0.158-0.159,0.291-0.274,0.407c-0.113,0.111-0.249,0.204-0.401,0.275
			c-0.297,0.134-0.656,0.132-0.962-0.004c-0.159-0.069-0.29-0.158-0.405-0.271c-0.115-0.116-0.204-0.249-0.274-0.405
			c-0.067-0.154-0.099-0.313-0.099-0.488v-1.614c0-0.235-0.191-0.429-0.426-0.429h-0.5c-0.236,0-0.427,0.193-0.427,0.429v1.614
			c0,0.361,0.071,0.704,0.208,1.024c0.137,0.314,0.325,0.593,0.56,0.826c0.233,0.235,0.511,0.422,0.827,0.56
			c0.32,0.139,0.665,0.208,1.023,0.208s0.701-0.071,1.018-0.21c0.31-0.138,0.583-0.324,0.816-0.556
			c0.234-0.233,0.422-0.512,0.559-0.828c0.139-0.32,0.21-0.665,0.21-1.024v-8.097C37.827,77.549,37.634,77.357,37.4,77.357z"/>
		<path style="fill:#E33F2C;" d="M45.353,78.063c-0.233-0.233-0.508-0.418-0.817-0.556c-0.63-0.277-1.402-0.279-2.042-0.002
			c-0.314,0.138-0.592,0.324-0.827,0.558c-0.233,0.235-0.421,0.514-0.557,0.828c-0.14,0.32-0.209,0.663-0.209,1.022v5.967
			c0,0.361,0.07,0.704,0.209,1.024c0.136,0.314,0.324,0.593,0.558,0.826c0.233,0.235,0.511,0.422,0.827,0.56
			c0.32,0.139,0.665,0.208,1.022,0.208c0.359,0,0.702-0.071,1.019-0.21c0.31-0.138,0.584-0.324,0.817-0.556
			c0.232-0.233,0.42-0.512,0.558-0.828c0.139-0.32,0.21-0.665,0.21-1.024v-5.967c0-0.357-0.071-0.702-0.21-1.024
			C45.773,78.575,45.585,78.297,45.353,78.063z M43.517,78.65c0.172,0,0.327,0.03,0.474,0.097c0.155,0.071,0.29,0.164,0.403,0.277
			c0.116,0.114,0.206,0.247,0.276,0.401c0.066,0.148,0.099,0.303,0.099,0.477v5.977c0,0.174-0.034,0.334-0.101,0.488
			c-0.07,0.158-0.159,0.291-0.274,0.407c-0.114,0.111-0.249,0.204-0.402,0.275c-0.296,0.134-0.655,0.132-0.959-0.004
			c-0.16-0.069-0.292-0.158-0.407-0.273c-0.114-0.114-0.203-0.247-0.273-0.405c-0.067-0.154-0.099-0.314-0.099-0.488v-5.977
			c0-0.174,0.031-0.328,0.097-0.477c0.07-0.154,0.161-0.287,0.277-0.403c0.114-0.113,0.245-0.202,0.404-0.273
			C43.185,78.683,43.344,78.65,43.517,78.65z"/>
		<path style="fill:#E33F2C;" d="M53.646,78.063c-0.233-0.233-0.507-0.418-0.816-0.556c-0.631-0.277-1.402-0.279-2.043-0.002
			c-0.314,0.138-0.592,0.324-0.827,0.558c-0.233,0.235-0.42,0.514-0.558,0.828c-0.139,0.32-0.209,0.663-0.209,1.022v5.967
			c0,0.361,0.072,0.704,0.209,1.024c0.137,0.314,0.324,0.593,0.559,0.826c0.233,0.235,0.511,0.422,0.827,0.56
			c0.32,0.139,0.665,0.208,1.023,0.208s0.701-0.071,1.019-0.21c0.309-0.138,0.583-0.324,0.816-0.556
			c0.234-0.233,0.421-0.512,0.559-0.828c0.138-0.32,0.209-0.665,0.209-1.024v-5.967c0-0.357-0.071-0.702-0.21-1.024
			C54.067,78.575,53.88,78.297,53.646,78.063z M51.812,78.65c0.172,0,0.327,0.03,0.473,0.097c0.154,0.071,0.29,0.164,0.403,0.277
			c0.116,0.114,0.206,0.247,0.276,0.401c0.065,0.148,0.098,0.303,0.098,0.477v5.977c0,0.174-0.033,0.334-0.1,0.488
			c-0.069,0.158-0.159,0.291-0.274,0.407c-0.114,0.111-0.249,0.204-0.402,0.275c-0.296,0.134-0.654,0.132-0.96-0.004
			c-0.158-0.069-0.291-0.158-0.405-0.273c-0.116-0.114-0.205-0.247-0.274-0.405c-0.068-0.154-0.101-0.314-0.101-0.488v-5.977
			c0-0.174,0.033-0.328,0.098-0.477c0.07-0.154,0.161-0.287,0.277-0.403c0.114-0.113,0.247-0.202,0.405-0.273
			C51.479,78.683,51.637,78.65,51.812,78.65z"/>
		<path style="fill:#E33F2C;" d="M63.973,77.357h-0.514c-0.18,0-0.34,0.112-0.401,0.282l-2.107,5.789l-2.122-5.791
			c-0.062-0.168-0.222-0.28-0.399-0.28h-0.514c-0.236,0-0.426,0.191-0.426,0.427v10.213c0,0.235,0.19,0.427,0.426,0.427h0.499
			c0.235,0,0.426-0.191,0.426-0.427v-6.386l1.71,4.675c0.062,0.168,0.222,0.279,0.4,0.279l0,0c0.18,0,0.341-0.111,0.401-0.279
			l1.696-4.663v6.374c0,0.235,0.191,0.427,0.426,0.427h0.499c0.236,0,0.427-0.191,0.427-0.427V77.784
			C64.399,77.549,64.208,77.357,63.973,77.357z"/>
		<path style="fill:#E33F2C;" d="M71.633,87.071h-2.806v-9.287c0-0.235-0.192-0.427-0.427-0.427h-0.499
			c-0.235,0-0.425,0.191-0.425,0.427v10.213c0,0.235,0.19,0.427,0.425,0.427h3.732c0.235,0,0.428-0.191,0.428-0.427v-0.499
			C72.061,87.263,71.868,87.071,71.633,87.071z"/>
		<path style="fill:#E33F2C;" d="M78.181,77.693c-0.041-0.197-0.215-0.336-0.416-0.336H76.92c-0.199,0-0.373,0.139-0.416,0.336
			l-2.267,10.211c-0.029,0.128,0.002,0.259,0.084,0.359c0.08,0.103,0.203,0.16,0.332,0.16h0.514c0.2,0,0.372-0.139,0.416-0.334
			l0.637-2.869h2.246l0.636,2.869c0.044,0.195,0.217,0.334,0.417,0.334h0.515c0.001,0,0.004,0,0.006,0
			c0.236,0,0.428-0.191,0.428-0.427c0-0.062-0.014-0.119-0.037-0.174L78.181,77.693z M76.515,83.869l0.829-3.714l0.827,3.714H76.515
			z"/>
		<path style="fill:#E33F2C;" d="M92.642,78.11c-0.233-0.233-0.513-0.421-0.83-0.554c-0.317-0.132-0.658-0.199-1.014-0.199h-2.08
			c-0.235,0-0.425,0.191-0.425,0.427v10.213c0,0.235,0.189,0.427,0.425,0.427h2.08c0.356,0,0.697-0.067,1.014-0.199
			c0.316-0.131,0.596-0.318,0.83-0.554c0.233-0.233,0.418-0.507,0.556-0.815c0.139-0.316,0.208-0.658,0.208-1.019v-5.893
			c0-0.358-0.069-0.702-0.208-1.019C93.06,78.615,92.874,78.344,92.642,78.11z M90.804,87.071h-1.159V78.71h1.159
			c0.175,0,0.333,0.029,0.482,0.095c0.153,0.065,0.281,0.15,0.395,0.263c0.114,0.117,0.205,0.248,0.274,0.4
			c0.065,0.149,0.099,0.306,0.099,0.477v5.893c0,0.172-0.033,0.328-0.099,0.475c-0.069,0.154-0.16,0.287-0.275,0.403
			c-0.111,0.109-0.244,0.198-0.393,0.262C91.137,87.04,90.979,87.071,90.804,87.071z"/>
		<path style="fill:#E33F2C;" d="M100.147,77.693c-0.043-0.197-0.216-0.336-0.415-0.336h-0.847c-0.199,0-0.373,0.139-0.416,0.336
			l-2.267,10.211c-0.027,0.128,0.003,0.259,0.084,0.359c0.08,0.103,0.203,0.16,0.333,0.16h0.515c0.199,0,0.372-0.139,0.415-0.334
			l0.636-2.869h2.247l0.635,2.869c0.044,0.195,0.217,0.334,0.416,0.334h0.515c0.003,0,0.005,0,0.009,0
			c0.235,0,0.426-0.191,0.426-0.427c0-0.062-0.013-0.119-0.036-0.174L100.147,77.693z M98.481,83.869l0.827-3.714l0.827,3.714
			H98.481z"/>
		<path style="fill:#E33F2C;" d="M109.658,77.357h-0.544c-0.176,0-0.335,0.108-0.397,0.272l-1.31,3.356l-1.294-3.356
			c-0.065-0.164-0.224-0.272-0.399-0.272h-0.542c-0.143,0-0.274,0.069-0.354,0.188c-0.079,0.115-0.097,0.263-0.044,0.396
			l1.964,5.039v5.018c0,0.235,0.19,0.427,0.426,0.427h0.499c0.234,0,0.427-0.191,0.427-0.427v-5.018l1.966-5.039
			c0.051-0.133,0.033-0.28-0.046-0.396C109.931,77.427,109.799,77.357,109.658,77.357z"/>
		<path style="fill:#E33F2C;" d="M122.469,77.357h-3.974c-0.235,0-0.427,0.191-0.427,0.427v10.213c0,0.235,0.191,0.427,0.427,0.427
			h0.498c0.235,0,0.427-0.191,0.427-0.427v-4.923h2.429c0.235,0,0.428-0.189,0.428-0.427v-0.498c0-0.235-0.192-0.426-0.428-0.426
			h-2.429V78.71h3.049c0.234,0,0.426-0.19,0.426-0.426v-0.5C122.895,77.549,122.703,77.357,122.469,77.357z"/>
		<path style="fill:#E33F2C;" d="M130.55,87.758l-1.628-3.843c0.117-0.048,0.229-0.103,0.336-0.166
			c0.252-0.15,0.476-0.341,0.668-0.569c0.189-0.228,0.341-0.48,0.447-0.752c0.109-0.28,0.166-0.583,0.166-0.897v-1.586
			c0-0.358-0.07-0.702-0.21-1.019c-0.137-0.311-0.322-0.582-0.555-0.815c-0.233-0.233-0.513-0.421-0.829-0.554
			c-0.317-0.132-0.658-0.199-1.014-0.199h-1.838c-0.235,0-0.426,0.191-0.426,0.427v10.213c0,0.235,0.19,0.427,0.426,0.427h0.499
			c0.234,0,0.427-0.191,0.427-0.427v-3.878h0.529l1.718,4.044c0.066,0.158,0.221,0.261,0.392,0.261h0.529c0.003,0,0.005,0,0.009,0
			c0.235,0,0.427-0.191,0.427-0.427C130.623,87.908,130.596,87.827,130.55,87.758z M127.938,82.766h-0.918V78.71h0.918
			c0.172,0,0.327,0.033,0.474,0.099c0.155,0.069,0.287,0.158,0.402,0.273c0.115,0.118,0.206,0.247,0.274,0.403
			c0.066,0.146,0.1,0.299,0.1,0.459v1.586c0,0.174-0.033,0.328-0.1,0.475c-0.068,0.156-0.159,0.288-0.274,0.403
			c-0.113,0.112-0.242,0.199-0.394,0.265C128.27,82.734,128.112,82.766,127.938,82.766z"/>
	</g>
	<g>
		<rect x="33.671" y="18.241" style="fill:#E33F2C;" width="18.571" height="49.405"/>
		<path style="fill:#E33F2C;" d="M60.171,18.242c-0.074,0-0.148-0.001-0.222-0.001v49.405c0.073,0,0.147,0,0.222-0.002
			c10.188-0.088,18.348-8.502,18.348-18.69V36.932C78.52,26.744,70.359,18.333,60.171,18.242z"/>
		<path style="fill:#E33F2C;" d="M7.396,86.338c0.074,0,0.148,0,0.222-0.002c10.189-0.09,18.348-8.502,18.348-18.69V26.663v-8.422
			H7.396V86.338z"/>
	</g>
	<g>
		<rect x="86.226" y="18.404" style="fill:#EC7E5F;" width="18.568" height="49.404"/>
		<rect x="112.502" y="36.965" style="fill:#EC7E5F;" width="18.57" height="18.724"/>
		<polygon style="fill:#EC7E5F;" points="112.502,10.535 112.502,29.258 131.072,29.258 131.072,29.226 131.072,10.535 		"/>
	</g>
</g>
</svg>
