<?xml version="1.0" encoding="utf-8"?>
<!-- Generator: Adobe Illustrator 15.1.0, SVG Export Plug-In . SVG Version: 6.00 Build 0)  -->
<!DOCTYPE svg PUBLIC "-//W3C//DTD SVG 1.1//EN" "http://www.w3.org/Graphics/SVG/1.1/DTD/svg11.dtd">
<svg version="1.1" id="Calque_1" xmlns="http://www.w3.org/2000/svg" xmlns:xlink="http://www.w3.org/1999/xlink" x="0px" y="0px"
	 width="352px" height="97px" viewBox="0 0 352 97" enable-background="new 0 0 352 97" xml:space="preserve">
<g>
	<g>
		<path fill="#213B4A" d="M113.231,48.031c-0.625,0.688-1.063,0.876-1.627,0.876c-1,0-1.812-0.813-1.812-1.814
			c0-0.438,0.124-0.75,0.312-1.063c1.751-2.752,5.128-4.94,10.385-4.94c7.257,0,11.26,4.252,11.26,10.632v17.204
			c0,1.063-0.875,1.938-1.938,1.938c-1.064,0-1.94-0.876-1.94-1.938v-2.252c-1.563,2.938-5.19,4.503-8.944,4.503
			c-6.633,0-10.823-3.189-10.823-8.942c0-5.505,4.19-8.824,10.948-8.824h8.819v-1.688c0-4.253-2.814-6.88-7.382-6.88
			C117.173,44.842,115.17,45.842,113.231,48.031z M127.871,59.545v-2.627h-8.819c-4.066,0-6.883,1.688-6.883,5.316
			c0,3.252,2.25,5.315,7.133,5.315C123.682,67.55,127.871,64.86,127.871,59.545z"/>
		<path fill="#213B4A" d="M143.266,46.218c1.25-2.877,4.383-5.004,8.698-5.004c1.063,0,1.938,0.876,1.938,1.939
			c0,1.063-0.874,1.939-1.938,1.939c-5.756,0-8.698,4.002-8.698,9.756v14.015c0,1.125-0.875,2.001-2.001,2.001
			s-2.003-0.876-2.003-2.001V43.466c0-1.125,0.877-2.001,2.003-2.001s2.001,0.876,2.001,2.001V46.218z"/>
		<path fill="#213B4A" d="M177.492,69.926l-11.075-14.196l-3.814,3.064v10.069c0,1.125-0.877,2.001-2.002,2.001
			s-2.003-0.876-2.003-2.001V27.825c0-1.126,0.878-2.002,2.003-2.002s2.002,0.876,2.002,2.002v26.21l14.766-12.07
			c0.5-0.438,1.001-0.5,1.375-0.5c1.126,0,2.002,0.876,2.002,2.001c0,0.5-0.188,1.126-0.813,1.627l-10.263,8.191l11.139,14.328
			c0.375,0.438,0.438,0.875,0.438,1.251c0,1.125-0.876,2.001-2.001,2.001C178.557,70.864,177.993,70.551,177.492,69.926z"/>
		<path fill="#213B4A" d="M210.779,52.159v16.704c0,1.125-0.876,2.001-2.002,2.001s-2.001-0.876-2.001-2.001V52.973
			c0-4.941-1.438-8.318-7.511-8.318c-6.191,0-8.317,3.752-8.317,8.756v15.453c0,1.125-0.881,2.001-2.006,2.001
			c-1.126,0-2.001-0.876-2.001-2.001V43.466c0-1.125,0.875-2.001,2.001-2.001c1.125,0,2.006,0.876,2.006,2.001v2.002
			c1.188-2.378,4.252-4.378,8.317-4.378C208.902,41.09,210.779,46.843,210.779,52.159z"/>
		<path fill="#213B4A" d="M242.689,56.099c0,10.263-5.004,15.078-13.141,15.078c-8.067,0-13.139-4.815-13.139-15.078
			c0-10.257,5.071-15.009,13.139-15.009C237.686,41.09,242.689,45.842,242.689,56.099z M238.624,56.099
			c0-7.881-3.315-11.382-9.075-11.382c-5.753,0-9.067,3.501-9.067,11.382c0,8.012,3.314,11.451,9.067,11.451
			C235.309,67.55,238.624,64.11,238.624,56.099z"/>
		<path fill="#213B4A" d="M250.515,35.393c0-1.063,0.938-2.001,2.002-2.001c1.126,0,2.001,0.938,2.001,2.001v6.572h4.065
			c1.063,0,1.876,0.813,1.876,1.876c0,1.063-0.813,1.876-1.876,1.876h-4.065v17.267c0,2.689,1.501,4.128,3.627,4.128
			c1.063,0,1.939,0.813,1.939,1.877c0,1.063-0.876,1.876-1.939,1.876c-4.94,0-7.63-3.314-7.63-7.881V45.717h-2.44
			c-1.063,0-1.881-0.813-1.881-1.876c0-1.063,0.818-1.876,1.881-1.876h2.44V35.393z"/>
		<path fill="#213B4A" d="M277.418,41.09c10.009,0,11.948,7.942,11.948,12.194c0,1.813,0,4.009-2.502,4.009h-18.269
			c0,6.191,3.566,10.194,9.447,10.194c3.63,0,5.756-1.376,7.508-2.689c0.375-0.25,0.625-0.376,1.126-0.376
			c1,0,1.813,0.813,1.813,1.814c0,0.688-0.312,1.063-0.688,1.438c-0.938,0.938-4.191,3.502-9.76,3.502
			c-8.32,0-13.513-4.565-13.513-15.078C264.53,46.469,269.285,41.09,277.418,41.09z M277.418,44.717
			c-5.443,0-8.446,3.501-8.822,9.067h16.831C285.427,49.282,283.861,44.717,277.418,44.717z"/>
		<path fill="#213B4A" d="M298.88,48.72c0,6.566,16.454,4.127,16.454,14.14c0,5.69-4.691,8.255-10.637,8.255
			c-5.129,0-9.069-2.439-10.696-4.503c-0.313-0.438-0.438-0.751-0.438-1.188c0-1.001,0.813-1.813,1.813-1.813
			c0.375,0,0.876,0.125,1.376,0.624c1.938,1.939,4.441,3.064,7.944,3.064c3.568,0,6.634-1.188,6.634-4.439
			c0-6.448-16.454-3.878-16.454-14.14c0-5.191,4.254-7.567,9.571-7.567c4.255,0,7.57,1.438,9.51,4.003
			c0.187,0.249,0.437,0.624,0.437,1.188c0,1.001-0.813,1.813-1.813,1.813c-0.313,0-0.814-0.063-1.313-0.563
			c-1.688-1.626-3.567-2.627-6.82-2.627C301.633,44.967,298.88,45.842,298.88,48.72z"/>
	</g>
	<g>
		<path fill="#213B4A" d="M84.687,35.161c6.193,0,8.385,3.717,8.385,9.146v21.914c0,2.859,2.098,4.955,5.146,4.955
			c2.857,0,5.145-2.096,5.145-4.955V42.403c0-8.291-3.523-16.58-16.483-16.58c-4.956,0-8.514,1.238-11.279,3.648
			c1.364,2.037,2.323,4.477,2.856,7.291C79.95,35.741,81.99,35.161,84.687,35.161z"/>
		<path fill="#B9322C" d="M59.151,25.823c-6.383,0-10.384,2.955-12.195,5.717c0-2.857-2.286-5.145-5.145-5.145
			s-5.146,2.287-5.146,5.145v34.682c0,0.715,0.137,1.383,0.389,1.98c0.755,1.795,2.542,2.975,4.755,2.975
			c1.848,0,3.396-0.818,4.298-2.129c0.541-0.787,0.849-1.754,0.849-2.826V44.976c0-4.922,1.824-8.744,7.067-9.625
			c0.749-0.123,1.567-0.189,2.461-0.189c6.193,0,8.384,3.717,8.384,9.146v21.914c0,0.357,0.033,0.701,0.098,1.035
			c0.441,2.316,2.381,3.92,5.05,3.92c2.856,0,5.144-2.096,5.144-4.955V44.214c0-0.016,0.001-0.025,0.001-0.039v-1.773
			C75.16,34.112,72.111,25.823,59.151,25.823z"/>
	</g>
</g>
</svg>
