<svg id="ok" xmlns="http://www.w3.org/2000/svg" width="350" height="97" viewBox="0 0 350 97"><defs><style>.cls-1{fill:#e84527;}.cls-2{fill:#4f91cd;}.cls-3{fill:#7dbb48;}.cls-4{fill:#f6a542;}.cls-5,.cls-6{fill:#fff;}.cls-5{fill-rule:evenodd;}</style></defs><title>Plan de travail 1</title><path class="cls-1" d="M37,54.07a11.17,11.17,0,0,1-11.19-2.78l-.38-.38,5-5,.38.38a4.13,4.13,0,1,0,5.84-5.84l-1-1-5-5-5.25-5.26,5-5,5.25,5.25,5,5,1,1A11.15,11.15,0,0,1,44.6,46a6.74,6.74,0,1,1-7.55,8"/><path class="cls-2" d="M35.11,40.09l-5.25,5.25-5,5-1,1a11.16,11.16,0,0,1-10.6,2.94,6.74,6.74,0,1,1-8.13-8.07A11.16,11.16,0,0,1,8.11,35.5l.38-.38,5,5-.38.38a4.14,4.14,0,0,0,5.86,5.85l1-1,5-5,5.25-5.26,5,5"/><path class="cls-3" d="M9.08,34.53l-1-1a11.16,11.16,0,0,1-2.8-11.11,6.74,6.74,0,1,1,8.14-7.67,11.16,11.16,0,0,1,10.45,3l.39.39-5,5-.38-.39a4.14,4.14,0,0,0-5.86,5.86l1,1,5,5,5.26,5.26-5,5L14.06,39.5l-5-5"/><path class="cls-4" d="M14.64,29l5.27-5.26,5-5,1-1a11.17,11.17,0,0,1,11.05-2.82,6.74,6.74,0,1,1,7.56,7.61,11.17,11.17,0,0,1-2.84,11l-.39.39-5-5,.38-.39a4.13,4.13,0,1,0-5.84-5.84l-1,1-5,5-5.26,5.26-5-5"/><path class="cls-5" d="M344.83,19.77h-1.55v3.1h-.78v-3.1H341v-.52h3.88Zm1.29.34v2.76h-.69V19.25h1l1.29,2.84,1.29-2.84H350v3.62h-.69V20.11l-1.21,2.76h-.69Z"/><path class="cls-4" d="M272.93,23.88c-3.81-3.35-9-5-15.42-5h-.08l-7.85,0a7.67,7.67,0,0,0-4.21,1.05,3.3,3.3,0,0,0-1.65,2.75h0V48A3.4,3.4,0,0,0,245.85,51a8,8,0,0,0,3.74.89h8.9c6.56,0,11.63-1.65,15.08-4.89a15.1,15.1,0,0,0,4.62-11.47A15,15,0,0,0,272.93,23.88ZM246.82,48V22.77c0-1.05.81-1.64,2.47-1.82h8c5.67,0,10.16,1.49,13.34,4.44a13.25,13.25,0,0,1,4.27,10.11,13.6,13.6,0,0,1-3.71,10c-2.84,2.9-7.18,4.37-12.88,4.37h-9C247.63,49.67,246.82,49.07,246.82,48ZM310,34.27c-3.13-3.06-7.46-4.6-12.86-4.6-4.84,0-8.73,1.06-11.56,3.16a10,10,0,0,0,.16,16.41c2.89,2.09,6.77,3.15,11.52,3.15a22.28,22.28,0,0,0,5.81-.74A16.51,16.51,0,0,0,310,48.13V52h3V30h-3Zm0,7.87V45a15.58,15.58,0,0,1-7,4.42,17.59,17.59,0,0,1-5.72.91c-4,0-7.2-.89-9.48-2.64a8.43,8.43,0,0,1,.06-13.42c2.3-1.76,5.47-2.66,9.42-2.66,4.15,0,7.4,1.07,9.67,3.19A9.56,9.56,0,0,1,310,42.14Zm32.11-12.07V51.18a9.67,9.67,0,0,1-4,8.12c-2.74,2.07-6.56,3.12-11.36,3.12a25.91,25.91,0,0,1-10.47-2.16l-.13-.06,1.06-2.13.12.06A19.19,19.19,0,0,0,323.19,60a26.05,26.05,0,0,0,3.69.31c3.93,0,7-.86,9.17-2.55a7.89,7.89,0,0,0,3.11-6.54V49.29c-2.34,2.06-5.65,3.1-9.83,3.1s-7.38-1-9.63-2.85a8.77,8.77,0,0,1-3.17-7.09V30.07h2.91v13A6.4,6.4,0,0,0,322,48.3a11.54,11.54,0,0,0,7.33,2.14,11.35,11.35,0,0,0,7.27-2.16,6.41,6.41,0,0,0,2.56-5.22v-13Z"/><path class="cls-6" d="M78.42,19.66h3.14v22a10.83,10.83,0,0,1-2.35,7.23c-1.91,2.27-4.89,3.43-8.87,3.43A24.31,24.31,0,0,1,66.47,52l-7.1-1.15,1-2.19,7.19,1.23a15,15,0,0,0,2.5.22,8.22,8.22,0,0,0,6.56-2.62,8,8,0,0,0,1.84-5.35ZM116.5,41a9.75,9.75,0,0,1-4.39,8.17c-2.9,2.11-6.75,3.18-11.44,3.18S92.13,51.31,89.2,49.2a9.72,9.72,0,0,1,0-16.33c2.93-2.13,6.79-3.2,11.46-3.2s8.56,1.09,11.49,3.23A9.73,9.73,0,0,1,116.5,41Zm-3.14,0A8.12,8.12,0,0,0,110,34.32c-2.3-1.78-5.44-2.68-9.34-2.68s-7.06.9-9.41,2.68a8.32,8.32,0,0,0,0,13.36c2.32,1.78,5.49,2.68,9.41,2.68s7-.91,9.31-2.71A8.11,8.11,0,0,0,113.36,41Zm38.07,0A9.76,9.76,0,0,1,147,49.21c-2.9,2.11-6.75,3.18-11.44,3.18s-8.53-1.07-11.46-3.19a9.72,9.72,0,0,1,0-16.33c2.93-2.13,6.79-3.2,11.46-3.2s8.56,1.09,11.49,3.23A9.73,9.73,0,0,1,151.43,41Zm-6.49-6.72c-2.3-1.78-5.45-2.68-9.34-2.68s-7.06.9-9.41,2.68a8.32,8.32,0,0,0,0,13.36c2.32,1.78,5.49,2.68,9.41,2.68s7-.91,9.31-2.71a8.28,8.28,0,0,0,0-13.33ZM194.8,32.2c-2.06-1.68-5-2.54-8.73-2.54a12.65,12.65,0,0,0-9.93,4.14c-2.33-2.75-5.66-4.14-9.9-4.14-3.62,0-6.51.82-8.57,2.45v-2h-3V52h3V36.77a5.55,5.55,0,0,1,2.27-3.37,10.15,10.15,0,0,1,6.18-1.77,10,10,0,0,1,6.33,1.85A5.52,5.52,0,0,1,174.69,38V52h2.91V38a5.52,5.52,0,0,1,2.24-4.53,11.81,11.81,0,0,1,12.7,0A5.52,5.52,0,0,1,194.78,38V52h3V38.6A7.84,7.84,0,0,0,194.8,32.2ZM201.91,52h3V19.66h-3ZM240.41,30V52h-3V48.13a16.52,16.52,0,0,1-6.93,3.51,22.27,22.27,0,0,1-5.81.74c-4.76,0-8.63-1.06-11.52-3.15A10,10,0,0,1,213,32.83c2.83-2.1,6.72-3.16,11.56-3.16,5.4,0,9.72,1.55,12.86,4.6V30Zm-6,4.78c-2.26-2.12-5.51-3.19-9.67-3.19-3.94,0-7.11.89-9.42,2.66a8.43,8.43,0,0,0-.06,13.42c2.28,1.75,5.47,2.64,9.48,2.64a17.58,17.58,0,0,0,5.72-.91,15.59,15.59,0,0,0,7-4.42V42.14A9.56,9.56,0,0,0,234.38,34.82Z"/><path class="cls-6" d="M73,75.15q.16.4.31.82.15-.43.32-.82t.38-.79L81.4,60.9a.88.88,0,0,1,.41-.43,1.9,1.9,0,0,1,.61-.08h2.19V82.29H82V66.2q0-.32,0-.69c0-.25,0-.49,0-.75l-7.5,13.69a1.18,1.18,0,0,1-1.07.69h-.43A1.18,1.18,0,0,1,72,78.46L64.34,64.72q0,.4.07.78t0,.7V82.29h-2.6V60.4H64a1.9,1.9,0,0,1,.61.08.88.88,0,0,1,.41.43L72.6,74.38A5.69,5.69,0,0,1,73,75.15Zm27.69,7.14H99.46a1.45,1.45,0,0,1-.64-.12.68.68,0,0,1-.32-.52l-.31-1.44q-.61.55-1.19,1a6.76,6.76,0,0,1-1.22.73,6.29,6.29,0,0,1-1.37.45,7.87,7.87,0,0,1-1.61.15,5.48,5.48,0,0,1-1.69-.25,3.82,3.82,0,0,1-1.37-.76,3.6,3.6,0,0,1-.92-1.28,4.48,4.48,0,0,1-.34-1.83,3.43,3.43,0,0,1,.5-1.77,4.44,4.44,0,0,1,1.63-1.51A10.58,10.58,0,0,1,93.55,74,20,20,0,0,1,98,73.63V72.41a4.21,4.21,0,0,0-.77-2.74,2.8,2.8,0,0,0-2.28-.93,4.84,4.84,0,0,0-1.67.25,6.32,6.32,0,0,0-1.18.57c-.33.21-.62.4-.86.57a1.24,1.24,0,0,1-.71.25.82.82,0,0,1-.48-.15,1.1,1.1,0,0,1-.33-.36L89.22,69A8.83,8.83,0,0,1,92,67.15a8.54,8.54,0,0,1,3.28-.61,5.86,5.86,0,0,1,2.31.43,4.74,4.74,0,0,1,1.7,1.19,5.05,5.05,0,0,1,1,1.85,7.71,7.71,0,0,1,.35,2.38Zm-7.06-1.67a5.55,5.55,0,0,0,1.31-.15A5.21,5.21,0,0,0,96,80.07a6,6,0,0,0,1-.65,8.76,8.76,0,0,0,.94-.87V75.35a18.2,18.2,0,0,0-3.19.24,9,9,0,0,0-2.14.62,3,3,0,0,0-1.2.91,2,2,0,0,0-.37,1.17,2.6,2.6,0,0,0,.2,1.06,2,2,0,0,0,.53.73,2.11,2.11,0,0,0,.79.42A3.62,3.62,0,0,0,93.61,80.63Zm11,1.67V66.81h1.56a.86.86,0,0,1,.61.17,1,1,0,0,1,.23.58l.18,2.41a7.08,7.08,0,0,1,2-2.53,4.63,4.63,0,0,1,3.9-.76,4.1,4.1,0,0,1,1,.41l-.35,2a.46.46,0,0,1-.47.38,2.35,2.35,0,0,1-.66-.15,4.15,4.15,0,0,0-1.24-.14,3.5,3.5,0,0,0-2.38.83,6.19,6.19,0,0,0-1.6,2.4v9.85Zm21-12.93a.6.6,0,0,1-.57.34,1.06,1.06,0,0,1-.52-.17l-.71-.37a6.68,6.68,0,0,0-1-.38,4.77,4.77,0,0,0-1.37-.18,4.06,4.06,0,0,0-1.24.18,3,3,0,0,0-.94.48,2.13,2.13,0,0,0-.6.71,1.92,1.92,0,0,0-.21.88,1.47,1.47,0,0,0,.34,1,3,3,0,0,0,.91.69,7.89,7.89,0,0,0,1.28.51l1.47.47q.76.25,1.47.56a5.37,5.37,0,0,1,1.28.76,3.49,3.49,0,0,1,.91,1.12,3.44,3.44,0,0,1,.34,1.6,5.06,5.06,0,0,1-.38,2,4.3,4.3,0,0,1-1.13,1.57,5.44,5.44,0,0,1-1.83,1,7.53,7.53,0,0,1-2.51.38,7.83,7.83,0,0,1-2.93-.53,7.44,7.44,0,0,1-2.23-1.35l.64-1a.94.94,0,0,1,.29-.31.81.81,0,0,1,.44-.11,1,1,0,0,1,.58.21q.31.21.74.47a5.71,5.71,0,0,0,1.05.47,4.8,4.8,0,0,0,1.55.21,4.27,4.27,0,0,0,1.39-.21,2.91,2.91,0,0,0,1-.56,2.2,2.2,0,0,0,.59-.81,2.52,2.52,0,0,0,.19-1,1.62,1.62,0,0,0-.34-1.06,2.91,2.91,0,0,0-.91-.72,7.5,7.5,0,0,0-1.29-.52l-1.48-.47q-.76-.24-1.48-.56a5.19,5.19,0,0,1-1.29-.79,3.56,3.56,0,0,1-.91-1.17,3.78,3.78,0,0,1-.34-1.69,4.12,4.12,0,0,1,.37-1.7,4.16,4.16,0,0,1,1.07-1.44,5.25,5.25,0,0,1,1.73-1,6.89,6.89,0,0,1,2.34-.37,7.39,7.39,0,0,1,2.74.48,6.49,6.49,0,0,1,2.1,1.32Zm10.31-2.8a6.91,6.91,0,0,1,2.57.47,5.77,5.77,0,0,1,2,1.34,6.13,6.13,0,0,1,1.34,2.17,8.38,8.38,0,0,1,.48,2.94,1.77,1.77,0,0,1-.14.86.57.57,0,0,1-.52.21h-10.3a8.54,8.54,0,0,0,.4,2.55,5.21,5.21,0,0,0,1,1.81A4,4,0,0,0,134.25,80a5.25,5.25,0,0,0,2,.36,5.82,5.82,0,0,0,1.76-.24,8.3,8.3,0,0,0,1.28-.51,9.7,9.7,0,0,0,.89-.51,1.18,1.18,0,0,1,.62-.24.6.6,0,0,1,.52.26l.76,1a5.16,5.16,0,0,1-1.21,1.06,7.55,7.55,0,0,1-1.5.74,9.56,9.56,0,0,1-1.66.43,10.13,10.13,0,0,1-1.7.15,7.87,7.87,0,0,1-3-.54,6.49,6.49,0,0,1-2.34-1.59,7.3,7.3,0,0,1-1.54-2.59,10.54,10.54,0,0,1-.55-3.54,9,9,0,0,1,.5-3,7.13,7.13,0,0,1,1.43-2.44,6.58,6.58,0,0,1,2.28-1.62A7.48,7.48,0,0,1,135.85,66.57Zm.06,2a4.18,4.18,0,0,0-3.1,1.14,5.36,5.36,0,0,0-1.41,3.16h8.42a5.5,5.5,0,0,0-.26-1.73,3.86,3.86,0,0,0-.76-1.36,3.42,3.42,0,0,0-1.23-.89A4.16,4.16,0,0,0,135.92,68.57ZM149.16,62a1.73,1.73,0,0,1-.16.74,2.14,2.14,0,0,1-.43.61,2,2,0,0,1-.62.42,1.86,1.86,0,0,1-.75.15,1.81,1.81,0,0,1-.74-.15,2,2,0,0,1-1-1,1.8,1.8,0,0,1-.15-.74,1.91,1.91,0,0,1,.15-.76,2,2,0,0,1,.42-.63,2,2,0,0,1,.61-.42,1.81,1.81,0,0,1,.74-.15,1.86,1.86,0,0,1,.75.15,2,2,0,0,1,.62.42,2.08,2.08,0,0,1,.43.63A1.83,1.83,0,0,1,149.16,62Zm-.61,4.86V82.29h-2.72V66.81Zm7.61-7v22.5h-2.72V59.79Zm7.61,0v22.5H161V59.79Zm10.71,6.78A6.91,6.91,0,0,1,177,67a5.77,5.77,0,0,1,2,1.34,6.13,6.13,0,0,1,1.34,2.17,8.38,8.38,0,0,1,.48,2.94,1.77,1.77,0,0,1-.14.86.57.57,0,0,1-.52.21h-10.3a8.54,8.54,0,0,0,.4,2.55,5.21,5.21,0,0,0,1,1.81A4,4,0,0,0,172.87,80a5.25,5.25,0,0,0,2,.36,5.82,5.82,0,0,0,1.76-.24,8.3,8.3,0,0,0,1.28-.51,9.7,9.7,0,0,0,.89-.51,1.18,1.18,0,0,1,.62-.24.6.6,0,0,1,.52.26l.76,1a5.16,5.16,0,0,1-1.21,1.06,7.55,7.55,0,0,1-1.5.74,9.56,9.56,0,0,1-1.66.43,10.13,10.13,0,0,1-1.7.15,7.87,7.87,0,0,1-3-.54,6.49,6.49,0,0,1-2.34-1.59,7.3,7.3,0,0,1-1.54-2.59,10.54,10.54,0,0,1-.55-3.54,9,9,0,0,1,.5-3,7.13,7.13,0,0,1,1.43-2.44,6.58,6.58,0,0,1,2.28-1.62A7.48,7.48,0,0,1,174.48,66.57Zm.06,2a4.18,4.18,0,0,0-3.1,1.14A5.36,5.36,0,0,0,170,72.86h8.42a5.5,5.5,0,0,0-.26-1.73,3.86,3.86,0,0,0-.76-1.36,3.42,3.42,0,0,0-1.23-.89A4.16,4.16,0,0,0,174.54,68.57Zm8.82,11.84a1.72,1.72,0,0,1,.13-.67,1.68,1.68,0,0,1,.37-.55,1.7,1.7,0,0,1,.57-.37,2,2,0,0,1,1.55,0,1.64,1.64,0,0,1,.6.47,2.11,2.11,0,0,1,.36.69,2.82,2.82,0,0,1,.12.85,5.51,5.51,0,0,1-.2,1.43,7.63,7.63,0,0,1-.57,1.47,8.4,8.4,0,0,1-.91,1.41,8.74,8.74,0,0,1-1.23,1.27l-.46-.44a.56.56,0,0,1-.2-.43.6.6,0,0,1,.21-.41l.39-.45a7.4,7.4,0,0,0,.48-.65,6.16,6.16,0,0,0,.45-.81,3.9,3.9,0,0,0,.3-.95h-.2a1.8,1.8,0,0,1-.72-.14,1.65,1.65,0,0,1-.56-.39,1.77,1.77,0,0,1-.37-.6A2.13,2.13,0,0,1,183.35,80.41ZM210,60.4v2.41H199.5v7.66h9v2.41h-9v9.41h-3V60.4Zm2.25,21.89V66.81h1.56a.86.86,0,0,1,.61.17,1,1,0,0,1,.23.58l.18,2.41a7.08,7.08,0,0,1,2-2.53,4.63,4.63,0,0,1,3.9-.76,4.1,4.1,0,0,1,1,.41l-.35,2a.46.46,0,0,1-.47.38,2.35,2.35,0,0,1-.66-.15,4.15,4.15,0,0,0-1.24-.14,3.5,3.5,0,0,0-2.38.83,6.19,6.19,0,0,0-1.6,2.4v9.85Zm22.89,0h-1.21a1.45,1.45,0,0,1-.64-.12.68.68,0,0,1-.32-.52l-.31-1.44q-.61.55-1.19,1a6.76,6.76,0,0,1-1.22.73,6.29,6.29,0,0,1-1.37.45,7.87,7.87,0,0,1-1.61.15,5.48,5.48,0,0,1-1.69-.25,3.82,3.82,0,0,1-1.37-.76,3.6,3.6,0,0,1-.92-1.28,4.48,4.48,0,0,1-.34-1.83,3.43,3.43,0,0,1,.5-1.77,4.44,4.44,0,0,1,1.63-1.51A10.58,10.58,0,0,1,228,74a20,20,0,0,1,4.45-.42V72.41a4.21,4.21,0,0,0-.77-2.74,2.8,2.8,0,0,0-2.28-.93,4.84,4.84,0,0,0-1.67.25,6.32,6.32,0,0,0-1.18.57c-.33.21-.62.4-.86.57a1.24,1.24,0,0,1-.71.25.82.82,0,0,1-.48-.15,1.1,1.1,0,0,1-.33-.36L223.7,69a8.83,8.83,0,0,1,2.77-1.85,8.54,8.54,0,0,1,3.28-.61,5.86,5.86,0,0,1,2.31.43,4.74,4.74,0,0,1,1.7,1.19,5.05,5.05,0,0,1,1,1.85,7.71,7.71,0,0,1,.35,2.38Zm-7.06-1.67a5.55,5.55,0,0,0,1.31-.15,5.21,5.21,0,0,0,1.12-.41,6,6,0,0,0,1-.65,8.76,8.76,0,0,0,.94-.87V75.35a18.2,18.2,0,0,0-3.19.24,9,9,0,0,0-2.14.62,3,3,0,0,0-1.2.91,2,2,0,0,0-.37,1.17,2.6,2.6,0,0,0,.2,1.06,2,2,0,0,0,.53.73,2.11,2.11,0,0,0,.79.42A3.62,3.62,0,0,0,228.09,80.63Zm11,1.67V66.81h1.62a.69.69,0,0,1,.73.57l.21,1.68a8.7,8.7,0,0,1,2.25-1.8,5.86,5.86,0,0,1,2.88-.69A5.6,5.6,0,0,1,249,67a4.34,4.34,0,0,1,1.62,1.19,5.26,5.26,0,0,1,1,1.86,8.09,8.09,0,0,1,.34,2.4v9.85h-2.72V72.44a4.17,4.17,0,0,0-.8-2.73,3,3,0,0,0-2.45-1,4.58,4.58,0,0,0-2.25.58,7.44,7.44,0,0,0-1.93,1.57v11.4Zm27.33-12.73a1.21,1.21,0,0,1-.24.26.57.57,0,0,1-.35.09.87.87,0,0,1-.5-.19,7,7,0,0,0-.68-.42,5.69,5.69,0,0,0-1-.42,5.32,5.32,0,0,0-3.45.21,3.89,3.89,0,0,0-1.46,1.17,5.29,5.29,0,0,0-.89,1.85,9.17,9.17,0,0,0-.3,2.43,8.88,8.88,0,0,0,.32,2.5,5.4,5.4,0,0,0,.9,1.83A3.84,3.84,0,0,0,260.17,80a4.36,4.36,0,0,0,1.87.39,4.77,4.77,0,0,0,1.63-.24,5,5,0,0,0,1.07-.53,7.71,7.71,0,0,0,.7-.53.85.85,0,0,1,.55-.24.58.58,0,0,1,.52.26l.76,1a5.88,5.88,0,0,1-2.52,1.81,8.94,8.94,0,0,1-3.19.57,6.76,6.76,0,0,1-2.7-.54,6.14,6.14,0,0,1-2.16-1.55,7.35,7.35,0,0,1-1.44-2.5,10,10,0,0,1-.53-3.38,10.19,10.19,0,0,1,.48-3.19,7.23,7.23,0,0,1,1.41-2.53,6.37,6.37,0,0,1,2.28-1.66,7.69,7.69,0,0,1,3.12-.6,7.35,7.35,0,0,1,2.87.53,6.88,6.88,0,0,1,2.22,1.49Zm9.63-3a6.91,6.91,0,0,1,2.57.47,5.77,5.77,0,0,1,2,1.34A6.13,6.13,0,0,1,282,70.55a8.38,8.38,0,0,1,.48,2.94,1.77,1.77,0,0,1-.14.86.57.57,0,0,1-.52.21h-10.3a8.54,8.54,0,0,0,.4,2.55,5.21,5.21,0,0,0,1,1.81A4,4,0,0,0,274.41,80a5.25,5.25,0,0,0,2,.36,5.82,5.82,0,0,0,1.76-.24,8.3,8.3,0,0,0,1.28-.51,9.7,9.7,0,0,0,.89-.51,1.18,1.18,0,0,1,.62-.24.6.6,0,0,1,.52.26l.76,1A5.16,5.16,0,0,1,281,81.18a7.55,7.55,0,0,1-1.5.74,9.56,9.56,0,0,1-1.66.43,10.13,10.13,0,0,1-1.7.15,7.87,7.87,0,0,1-3-.54,6.49,6.49,0,0,1-2.34-1.59,7.3,7.3,0,0,1-1.54-2.59,10.54,10.54,0,0,1-.55-3.54,9,9,0,0,1,.5-3,7.13,7.13,0,0,1,1.43-2.44A6.58,6.58,0,0,1,273,67.16,7.48,7.48,0,0,1,276,66.57Zm.06,2a4.18,4.18,0,0,0-3.1,1.14,5.36,5.36,0,0,0-1.41,3.16H280a5.5,5.5,0,0,0-.26-1.73,3.86,3.86,0,0,0-.76-1.36,3.42,3.42,0,0,0-1.23-.89A4.16,4.16,0,0,0,276.08,68.57Z"/></svg>